<svg width="182" height="66" viewBox="0 0 182 66" fill="none" xmlns="http://www.w3.org/2000/svg">
<g filter="url(#filter0_dd)">
<path d="M15.5 35C15.5 23.9543 24.4543 15 35.5 15H151.5C162.546 15 171.5 23.9543 171.5 35V35C171.5 46.0457 162.546 55 151.5 55H35.5C24.4543 55 15.5 46.0457 15.5 35V35Z" fill="#EFF1F7"/>
<path d="M55.8652 30.82L47.4172 30.82V31.9L55.8652 31.9V30.82ZM54.1492 39.688C53.7172 39.688 53.6452 39.616 53.6452 39.184V35.188H56.9092V34.108H46.3612V35.188H49.2532C49.0852 37.3 48.6772 39.088 46.1692 40.024C46.4212 40.24 46.7452 40.636 46.8652 40.924C49.6852 39.796 50.2252 37.72 50.4412 35.188H52.4932V39.196C52.4932 40.372 52.8052 40.744 53.9932 40.744H55.5892C56.7052 40.744 56.9932 40.156 57.1132 38.08C56.8132 37.996 56.3332 37.804 56.0692 37.6C56.0212 39.376 55.9492 39.688 55.5052 39.688H54.1492ZM68.6092 35.788C68.6092 33.28 66.7852 31.264 63.9052 31.264C60.8932 31.264 58.5412 33.568 58.5412 36.256C58.5412 38.26 59.6332 39.58 60.8212 39.58C62.0092 39.58 63.0052 38.224 63.7252 35.776C64.0732 34.648 64.2772 33.484 64.4452 32.404C66.2932 32.632 67.3492 34.012 67.3492 35.752C67.3492 37.684 65.9812 38.812 64.4452 39.16C64.1452 39.232 63.7852 39.292 63.3772 39.328L64.0852 40.456C67.0012 40.036 68.6092 38.308 68.6092 35.788ZM59.7532 36.136C59.7532 34.648 61.0132 32.776 63.1732 32.428C63.0292 33.484 62.8132 34.576 62.5132 35.524C61.9612 37.372 61.3972 38.152 60.8572 38.152C60.3412 38.152 59.7532 37.516 59.7532 36.136ZM78.1612 32.74C78.1612 32.272 78.5332 31.912 78.9892 31.912C79.4452 31.912 79.8172 32.272 79.8172 32.74C79.8172 33.196 79.4452 33.568 78.9892 33.568C78.5332 33.568 78.1612 33.196 78.1612 32.74ZM77.5012 32.74C77.5012 33.568 78.1612 34.228 78.9892 34.228C79.8292 34.228 80.5012 33.568 80.5012 32.74C80.5012 31.9 79.8292 31.228 78.9892 31.228C78.1612 31.228 77.5012 31.9 77.5012 32.74ZM70.1572 36.724L71.2972 37.888C71.4892 37.612 71.7652 37.228 72.0172 36.88C72.5452 36.22 73.4812 34.96 74.0092 34.312C74.3812 33.844 74.6212 33.808 75.0532 34.228C75.5332 34.696 76.6252 35.872 77.3212 36.676C78.0652 37.54 79.0972 38.776 79.9372 39.784L80.9812 38.68C80.0572 37.684 78.8452 36.376 78.0292 35.512C77.3212 34.756 76.3372 33.724 75.5812 33.016C74.7172 32.188 74.0812 32.32 73.4092 33.112C72.6292 34.048 71.6332 35.32 71.0692 35.884C70.7332 36.22 70.4932 36.448 70.1572 36.724ZM82.7812 34.648V36.136C83.1892 36.1 83.9092 36.076 84.5692 36.076H91.0972C91.6252 36.076 92.1772 36.124 92.4412 36.136V34.648C92.1412 34.672 91.6732 34.72 91.0972 34.72H84.5692C83.9212 34.72 83.1772 34.672 82.7812 34.648ZM102.047 30.928L101.231 31.276C101.651 31.852 101.999 32.476 102.311 33.16L103.151 32.8C102.875 32.236 102.371 31.396 102.047 30.928ZM103.655 30.352L102.827 30.7C103.247 31.264 103.619 31.864 103.955 32.548L104.795 32.176C104.495 31.624 103.991 30.796 103.655 30.352ZM96.8868 30.724L96.2028 31.768C96.9348 32.188 98.2188 33.028 98.8308 33.472L99.5508 32.44C98.9748 32.032 97.6308 31.144 96.8868 30.724ZM94.8948 39.28L95.6028 40.516C96.6948 40.312 98.3748 39.736 99.5868 39.04C101.531 37.9 103.199 36.364 104.279 34.732L103.547 33.46C102.587 35.164 100.955 36.772 98.9508 37.912C97.6908 38.608 96.2268 39.052 94.8948 39.28ZM95.0508 33.448L94.3788 34.48C95.1348 34.888 96.4188 35.704 97.0428 36.16L97.7388 35.092C97.1748 34.696 95.8068 33.856 95.0508 33.448ZM105.959 36.58L107.087 37.744C107.291 37.468 107.567 37.084 107.819 36.724C108.395 36.016 109.319 34.744 109.847 34.084C110.231 33.616 110.459 33.532 110.927 34.048C111.491 34.684 112.391 35.836 113.159 36.712C113.951 37.636 115.019 38.824 115.907 39.664L116.879 38.548C115.775 37.564 114.647 36.376 113.903 35.56C113.159 34.768 112.223 33.556 111.467 32.8C110.639 31.972 109.943 32.068 109.187 32.944C108.455 33.808 107.495 35.116 106.883 35.728C106.547 36.076 106.283 36.34 105.959 36.58ZM128.459 30.568L118.391 30.568V31.576L128.459 31.576V30.568ZM120.215 36.496C120.251 36.064 120.275 35.632 120.287 35.236H123.443C123.419 35.692 123.383 36.112 123.323 36.496H120.215ZM126.755 33.184V34.36H120.299V33.184H126.755ZM128.507 37.456V36.496H124.463C124.511 36.1 124.547 35.68 124.583 35.236H127.847V32.32H119.183V34.672C119.183 36.28 119.039 38.56 117.755 40.168C118.031 40.276 118.523 40.588 118.727 40.78C119.459 39.832 119.867 38.644 120.071 37.456H123.107C122.699 38.752 121.775 39.568 119.519 40.06C119.723 40.264 120.023 40.696 120.119 40.972C122.399 40.432 123.491 39.532 124.031 38.2C124.835 39.724 126.143 40.576 128.279 40.948C128.411 40.636 128.711 40.18 128.951 39.94C126.791 39.664 125.471 38.884 124.799 37.456H128.507ZM133.895 38.668C133.895 38.308 134.267 37.984 134.771 37.984C135.563 37.984 136.091 38.596 136.187 39.472C135.923 39.508 135.635 39.52 135.335 39.52C134.483 39.52 133.895 39.196 133.895 38.668ZM132.143 31.024L132.179 32.26C132.455 32.224 132.767 32.2 133.067 32.188C133.691 32.152 135.767 32.056 136.403 32.032C135.803 32.56 134.411 33.712 133.739 34.264C133.031 34.852 131.531 36.112 130.595 36.88L131.471 37.768C132.887 36.256 134.015 35.356 135.935 35.356C137.435 35.356 138.539 36.172 138.539 37.3C138.539 38.176 138.095 38.824 137.267 39.184C137.111 38.044 136.259 37.084 134.771 37.084C133.583 37.084 132.791 37.888 132.791 38.776C132.791 39.868 133.895 40.6 135.551 40.6C138.251 40.6 139.775 39.232 139.775 37.324C139.775 35.644 138.287 34.408 136.283 34.408C135.803 34.408 135.323 34.468 134.843 34.612C135.695 33.916 137.171 32.668 137.783 32.212C138.035 32.02 138.287 31.852 138.539 31.696L137.879 30.832C137.747 30.88 137.531 30.904 137.111 30.94C136.463 31 133.727 31.072 133.103 31.072C132.815 31.072 132.443 31.06 132.143 31.024Z" fill="#889396"/>
</g>
<defs>
<filter id="filter0_dd" x="0.5" y="0" width="181" height="66" filterUnits="userSpaceOnUse" color-interpolation-filters="sRGB">
<feFlood flood-opacity="0" result="BackgroundImageFix"/>
<feColorMatrix in="SourceAlpha" type="matrix" values="0 0 0 0 0 0 0 0 0 0 0 0 0 0 0 0 0 0 127 0"/>
<feOffset dx="2" dy="3"/>
<feGaussianBlur stdDeviation="4"/>
<feColorMatrix type="matrix" values="0 0 0 0 0.647059 0 0 0 0 0.729412 0 0 0 0 0.780392 0 0 0 0.45 0"/>
<feBlend mode="normal" in2="BackgroundImageFix" result="effect1_dropShadow"/>
<feColorMatrix in="SourceAlpha" type="matrix" values="0 0 0 0 0 0 0 0 0 0 0 0 0 0 0 0 0 0 127 0"/>
<feOffset dx="-5" dy="-5"/>
<feGaussianBlur stdDeviation="5"/>
<feColorMatrix type="matrix" values="0 0 0 0 1 0 0 0 0 1 0 0 0 0 1 0 0 0 0.6 0"/>
<feBlend mode="normal" in2="effect1_dropShadow" result="effect2_dropShadow"/>
<feBlend mode="normal" in="SourceGraphic" in2="effect2_dropShadow" result="shape"/>
</filter>
</defs>
</svg>
