<svg xmlns="http://www.w3.org/2000/svg" xmlns:xlink="http://www.w3.org/1999/xlink" viewBox="0 0 287 46"><defs><style>.cls-1{fill:none;}.cls-2{fill:#fff;}.cls-3{fill:#889396;}.cls-4{clip-path:url(#clip-path);}.cls-5{fill:#4285f4;}.cls-6{fill:#34a853;}.cls-7{fill:#fbbc04;}.cls-8{fill:#ea4335;}</style><clipPath id="clip-path"><rect class="cls-1" x="24" y="14" width="18" height="18"/></clipPath></defs><g id="レイヤー_2" data-name="レイヤー 2"><g id="レイヤー_1-2" data-name="レイヤー 1"><path class="cls-2" d="M23,0H264a23,23,0,0,1,23,23h0a23,23,0,0,1-23,23H23A23,23,0,0,1,0,23H0A23,23,0,0,1,23,0Z"/><path class="cls-3" d="M94,29.18A4.65,4.65,0,0,0,97.22,28V23.51H93.71v1.33h2v2.42a2.49,2.49,0,0,1-1.62.51c-2.13,0-3.26-1.5-3.26-3.95s1.27-3.91,3.19-3.91a2.84,2.84,0,0,1,2.14.93l.87-1A4.11,4.11,0,0,0,94,18.5c-2.73,0-4.8,2-4.8,5.38S91.22,29.18,94,29.18Zm8.56,0a3.7,3.7,0,0,0,3.62-4,3.65,3.65,0,1,0-7.25,0A3.7,3.7,0,0,0,102.52,29.18Zm0-1.31c-1.21,0-2-1.08-2-2.72s.75-2.72,2-2.72,2,1.1,2,2.72S103.74,27.87,102.52,27.87Zm8.6,1.31a3.7,3.7,0,0,0,3.62-4,3.65,3.65,0,1,0-7.25,0A3.7,3.7,0,0,0,111.12,29.18Zm0-1.31c-1.21,0-2-1.08-2-2.72s.75-2.72,2-2.72,2,1.1,2,2.72S112.33,27.87,111.12,27.87Zm8.15,4.59c2.46,0,4-1.21,4-2.69,0-1.32-1-1.88-2.77-1.88h-1.42c-1,0-1.28-.29-1.28-.75a1,1,0,0,1,.42-.81,2.67,2.67,0,0,0,1.07.23,2.63,2.63,0,0,0,2.89-2.64,2.07,2.07,0,0,0-.51-1.42h1.47V21.3h-2.73a3.21,3.21,0,0,0-1.12-.2,2.78,2.78,0,0,0-3,2.76,2.62,2.62,0,0,0,1,2.06V26a1.85,1.85,0,0,0-.86,1.42,1.41,1.41,0,0,0,.7,1.28v.07a2,2,0,0,0-1.12,1.68C116.08,31.77,117.42,32.46,119.27,32.46Zm0-6.93a1.51,1.51,0,0,1-1.45-1.67,1.46,1.46,0,1,1,2.91,0A1.51,1.51,0,0,1,119.32,25.53Zm.19,5.86c-1.28,0-2.06-.44-2.06-1.2a1.38,1.38,0,0,1,.66-1.12,4.85,4.85,0,0,0,1,.11h1.16c.94,0,1.45.2,1.45.84S120.85,31.39,119.51,31.39Zm6.82-2.21a2.5,2.5,0,0,0,.86-.12L127,27.84a1,1,0,0,1-.26,0c-.2,0-.38-.16-.38-.59V17.84h-1.61v9.35C124.73,28.44,125.16,29.18,126.33,29.18Zm5.78,0a4.64,4.64,0,0,0,2.6-.81l-.56-1a3.3,3.3,0,0,1-1.83.57,2.32,2.32,0,0,1-2.38-2.35h5a3.61,3.61,0,0,0,.09-.83c0-2.17-1.11-3.64-3.15-3.64a3.75,3.75,0,0,0-3.52,4A3.7,3.7,0,0,0,132.11,29.18Zm-2.19-4.73a2.1,2.1,0,0,1,2-2.09c1.12,0,1.72.77,1.72,2.09Zm6.73-4.83.14,1.53c1.57-.34,4.83-.68,6.24-.82a5.64,5.64,0,0,0-2.38,4.55c0,3.08,2.87,4.55,5.62,4.69l.5-1.49c-2.31-.1-4.69-1-4.69-3.5a4.64,4.64,0,0,1,3.09-4.22,13.67,13.67,0,0,1,2.73-.19V18.75c-1,0-2.36.11-3.86.24-2.58.22-5.07.46-6.09.56C137.67,19.58,137.18,19.61,136.65,19.62Zm9.24,2.1-.84.36a14.28,14.28,0,0,1,1.12,2l.87-.39A21.86,21.86,0,0,0,145.89,21.72Zm1.55-.6-.84.38a13.06,13.06,0,0,1,1.18,1.93l.85-.41A18.8,18.8,0,0,0,147.44,21.12Zm4.08-1.86c0,.36,0,.85,0,1.21v6.88c0,.56,0,1.68,0,1.8H153a6.63,6.63,0,0,1,0-.78h7.26c0,.39,0,.71,0,.78h1.52c0-.11,0-1.31,0-1.8V20.47c0-.39,0-.82,0-1.2h-8.89C152.52,19.28,152.08,19.28,151.52,19.26ZM153,20.68h7.27V27H153Zm21.39-3-.89.38A17.7,17.7,0,0,1,174.6,20l.93-.39A19.41,19.41,0,0,0,174.39,17.69Zm1.58-.6-.89.37a15,15,0,0,1,1.15,1.94l.91-.41A17.13,17.13,0,0,0,176,17.09Zm-5.13,1.35-1.63-.53a6.12,6.12,0,0,1-.52,1.26,12,12,0,0,1-4.39,4.64l1.23.91a14.47,14.47,0,0,0,3.54-3.42h4.38a10.51,10.51,0,0,1-2.12,4.13,11.28,11.28,0,0,1-5.62,3.49l1.3,1.17a12.62,12.62,0,0,0,5.6-3.88,13.86,13.86,0,0,0,2.47-4.76,4.76,4.76,0,0,1,.39-.85l-1.15-.7a3.87,3.87,0,0,1-1,.14H169.9l.21-.36C170.26,19.4,170.56,18.86,170.84,18.44Zm7.82,5.34.69,1.38A28.38,28.38,0,0,0,184.51,23v4.88c0,.57,0,1.34-.08,1.65h1.74a10.51,10.51,0,0,1-.1-1.65V22.06A23.56,23.56,0,0,0,189.83,19l-1.17-1.12a17.3,17.3,0,0,1-3.89,3.33A23.18,23.18,0,0,1,178.66,23.78Zm16.2-5.21-1,1.09a31.28,31.28,0,0,1,3.5,3l1.1-1.13A28.52,28.52,0,0,0,194.86,18.57Zm-1.44,9.37.94,1.44a15.39,15.39,0,0,0,5.36-2.09,14.32,14.32,0,0,0,4.91-5.07l-.85-1.52A13.45,13.45,0,0,1,198.92,26,14.6,14.6,0,0,1,193.42,27.94Z"/><g class="cls-4"><path class="cls-5" d="M42,23.21a10.2,10.2,0,0,0-.16-1.83H33.18v3.46h5a4.19,4.19,0,0,1-1.84,2.74v2.25h3A8.7,8.7,0,0,0,42,23.21Z"/><path class="cls-6" d="M33.18,32a8.94,8.94,0,0,0,6.09-2.17l-3-2.25a5.6,5.6,0,0,1-3.13.86A5.5,5.5,0,0,1,28,24.73H25V27A9.22,9.22,0,0,0,33.18,32Z"/><path class="cls-7" d="M28,24.73a5.36,5.36,0,0,1,0-3.45V19H25A8.86,8.86,0,0,0,25,27Z"/><path class="cls-8" d="M33.18,17.56a5,5,0,0,1,3.52,1.35l2.62-2.57A8.89,8.89,0,0,0,33.18,14,9.22,9.22,0,0,0,25,19L28,21.28A5.49,5.49,0,0,1,33.18,17.56Z"/></g></g></g></svg>