<svg width="287" height="46" viewBox="0 0 287 46" fill="none" xmlns="http://www.w3.org/2000/svg">
<rect width="287" height="46" rx="23" fill="#1DA1F2"/>
<path d="M88.5254 29H90.1494V20.054H93.1874V18.682H85.5014V20.054H88.5254V29ZM95.5841 29H97.4461L98.3841 25.206C98.5801 24.478 98.7201 23.764 98.8741 22.966H98.9441C99.1121 23.764 99.2521 24.464 99.4341 25.192L100.414 29H102.346L104.334 21.3H102.822L101.828 25.458C101.66 26.214 101.534 26.914 101.38 27.656H101.324C101.142 26.914 100.988 26.214 100.806 25.458L99.7001 21.3H98.2161L97.1241 25.458C96.9421 26.2 96.7881 26.914 96.6201 27.656H96.5641C96.4241 26.914 96.2981 26.214 96.1441 25.458L95.1221 21.3H93.4981L95.5841 29ZM105.932 29H107.542V21.3H105.932V29ZM106.73 19.858C107.318 19.858 107.738 19.48 107.738 18.892C107.738 18.318 107.318 17.94 106.73 17.94C106.142 17.94 105.736 18.318 105.736 18.892C105.736 19.48 106.142 19.858 106.73 19.858ZM112.541 29.182C113.101 29.182 113.619 29.042 114.053 28.902L113.759 27.712C113.535 27.81 113.199 27.894 112.933 27.894C112.135 27.894 111.813 27.418 111.813 26.494V22.588H113.815V21.3H111.813V19.172H110.469L110.287 21.3L109.083 21.384V22.588H110.203V26.48C110.203 28.104 110.805 29.182 112.541 29.182ZM117.778 29.182C118.338 29.182 118.856 29.042 119.29 28.902L118.996 27.712C118.772 27.81 118.436 27.894 118.17 27.894C117.372 27.894 117.05 27.418 117.05 26.494V22.588H119.052V21.3H117.05V19.172H115.706L115.524 21.3L114.32 21.384V22.588H115.44V26.48C115.44 28.104 116.042 29.182 117.778 29.182ZM123.712 29.182C124.72 29.182 125.602 28.846 126.316 28.37L125.756 27.348C125.196 27.712 124.608 27.922 123.922 27.922C122.592 27.922 121.668 27.04 121.542 25.57H126.54C126.582 25.374 126.624 25.066 126.624 24.744C126.624 22.574 125.518 21.104 123.474 21.104C121.682 21.104 119.96 22.658 119.96 25.15C119.96 27.698 121.626 29.182 123.712 29.182ZM121.528 24.45C121.682 23.106 122.536 22.364 123.502 22.364C124.622 22.364 125.224 23.134 125.224 24.45H121.528ZM128.422 29H130.032V24.198C130.508 22.98 131.264 22.546 131.894 22.546C132.202 22.546 132.398 22.588 132.664 22.672L132.958 21.272C132.72 21.16 132.468 21.104 132.09 21.104C131.264 21.104 130.452 21.692 129.906 22.686H129.864L129.738 21.3H128.422V29ZM133.983 19.62L134.123 21.146C135.691 20.81 138.953 20.474 140.367 20.334C139.233 21.076 137.987 22.77 137.987 24.884C137.987 27.964 140.857 29.434 143.601 29.574L144.105 28.076C141.795 27.978 139.415 27.124 139.415 24.576C139.415 22.924 140.647 20.922 142.509 20.362C143.237 20.18 144.455 20.166 145.239 20.166V18.752C144.273 18.78 142.873 18.864 141.375 18.99C138.799 19.214 136.307 19.452 135.285 19.55C135.005 19.578 134.515 19.606 133.983 19.62ZM143.223 21.72L142.383 22.084C142.803 22.686 143.167 23.33 143.503 24.044L144.371 23.652C144.077 23.064 143.559 22.21 143.223 21.72ZM144.777 21.118L143.937 21.496C144.385 22.098 144.749 22.714 145.113 23.428L145.967 23.022C145.659 22.434 145.113 21.594 144.777 21.118ZM148.851 19.256C148.879 19.62 148.879 20.11 148.879 20.474V27.348C148.879 27.908 148.851 29.028 148.837 29.154H150.363C150.349 29.084 150.349 28.748 150.349 28.37H157.601C157.587 28.762 157.587 29.084 157.573 29.154H159.099C159.099 29.042 159.071 27.838 159.071 27.348V20.474C159.071 20.082 159.071 19.648 159.099 19.27C158.637 19.284 158.133 19.284 157.811 19.284H150.209C149.859 19.284 149.411 19.284 148.851 19.256ZM150.335 20.684L157.601 20.684V26.97H150.335V20.684ZM171.727 17.688L170.831 18.066C171.209 18.598 171.657 19.438 171.937 19.998L172.861 19.606C172.581 19.06 172.077 18.192 171.727 17.688ZM173.309 17.086L172.413 17.464C172.805 17.996 173.267 18.794 173.561 19.396L174.471 18.99C174.219 18.486 173.687 17.604 173.309 17.086ZM168.171 18.444L166.547 17.912C166.435 18.318 166.197 18.878 166.029 19.172C165.371 20.404 164.069 22.336 161.633 23.806L162.865 24.716C164.321 23.736 165.525 22.504 166.407 21.3H170.789C170.537 22.476 169.697 24.24 168.661 25.43C167.415 26.872 165.749 28.118 163.047 28.916L164.349 30.092C166.967 29.084 168.661 27.796 169.949 26.214C171.209 24.674 172.035 22.798 172.413 21.454C172.511 21.174 172.665 20.824 172.805 20.6L171.657 19.9C171.391 19.984 170.999 20.04 170.607 20.04H167.233C167.317 19.914 167.373 19.802 167.443 19.676C167.597 19.396 167.891 18.864 168.171 18.444ZM175.997 23.778L176.683 25.164C178.531 24.604 180.379 23.792 181.849 22.994V27.866C181.849 28.44 181.807 29.21 181.765 29.518H183.501C183.431 29.21 183.403 28.44 183.403 27.866V22.056C184.789 21.146 186.105 20.068 187.169 18.99L185.993 17.87C185.041 19.004 183.557 20.306 182.101 21.202C180.547 22.168 178.447 23.12 175.997 23.778ZM192.195 18.57L191.173 19.662C192.209 20.362 193.945 21.888 194.673 22.63L195.779 21.496C194.995 20.684 193.175 19.228 192.195 18.57ZM190.753 27.936L191.691 29.378C193.861 28.986 195.639 28.16 197.053 27.292C199.237 25.948 200.959 24.044 201.967 22.224L201.113 20.698C200.259 22.49 198.509 24.59 196.255 25.976C194.911 26.802 193.091 27.586 190.753 27.936Z" fill="white"/>
<path d="M40.5818 19.6439C40.5929 19.8027 40.5929 19.9616 40.5929 20.1218C40.5929 25.0053 36.8388 30.6374 29.9744 30.6374V30.6345C27.9466 30.6374 25.961 30.0622 24.2539 28.9776C24.5488 29.0128 24.8451 29.0303 25.1422 29.031C26.8226 29.0325 28.455 28.4741 29.7771 27.4459C28.1801 27.4159 26.7798 26.3848 26.2906 24.8794C26.85 24.9863 27.4264 24.9643 27.9754 24.8157C26.2344 24.4674 24.9818 22.9525 24.9818 21.1932C24.9818 21.1771 24.9818 21.1617 24.9818 21.1464C25.5006 21.4325 26.0814 21.5913 26.6756 21.6089C25.0358 20.5236 24.5303 18.3633 25.5205 16.6742C27.4153 18.9831 30.2109 20.3867 33.2119 20.5353C32.9111 19.2517 33.322 17.9066 34.2916 17.0043C35.7946 15.605 38.1587 15.6767 39.5716 17.1645C40.4074 17.0013 41.2085 16.6976 41.9415 16.2673C41.6629 17.1228 41.0799 17.8495 40.301 18.3113C41.0407 18.2249 41.7634 18.0288 42.444 17.7295C41.943 18.473 41.3119 19.1207 40.5818 19.6439Z" fill="white"/>
</svg>
