<svg xmlns="http://www.w3.org/2000/svg" viewBox="0 0 601.1 164.21"><defs><style>.cls-1{fill:#9defe9;}.cls-2{fill:#34c6c6;}.cls-3{fill:#009898;}</style></defs><g id="レイヤー_2" data-name="レイヤー 2"><g id="レイヤー_1-2" data-name="レイヤー 1"><g id="レイヤー_2-2" data-name="レイヤー 2"><g id="レイヤー_1-2-2" data-name="レイヤー 1-2"><path class="cls-1" d="M105.24,0C119.3,19.09,130,39.63,132.53,63.74c-21.17,3.42-39,12.79-52.59,29.55s-19,36.09-17.86,57.65a57.16,57.16,0,0,1-4-5.18,100.66,100.66,0,0,1-14.87-30,90.44,90.44,0,0,1-3.78-28.12A89.12,89.12,0,0,1,42.84,66a90.88,90.88,0,0,1,6.71-16.83,97.54,97.54,0,0,1,12.1-18.08,100.07,100.07,0,0,1,7-7.56A110.33,110.33,0,0,1,91.76,6.35,124.79,124.79,0,0,1,104.64.17,4.5,4.5,0,0,1,105.24,0Z"/><path d="M293.39,92.53h17.69c3.87,18.19,9.71,36,11.94,54.73a273.88,273.88,0,0,1,5.44-27.5c2.24-9.07,4.38-18.17,6.56-27.25h15.5l-18.13,70.27H314.67c-4.27-18.66-8.87-37.25-12.67-56.07-3.64,18.86-8.78,37.31-13,56H271.61q-9-35-18-70.22H269.4c4,18.19,9.39,36.1,11.54,54.72,1.56-9.25,3.22-18.43,5.59-27.47S291.11,101.64,293.39,92.53Z"/><path d="M248,57.36V73H220.09v89.76H200.53V73H172.36V57.36Z"/><path d="M433.78,119.51a24.25,24.25,0,0,0-1.52-9,9.22,9.22,0,0,0-8.64-6.16,17.12,17.12,0,0,0-6.24.73c-4.42,1.39-6.56,4.76-7.78,8.93a45.4,45.4,0,0,0-1.65,12.8v36H392.21V92.51h12.2c.68,3.07,1.37,6.12,2,9.15.6.29.89,0,1.18-.43,4.14-6.89,10.6-9.64,18.29-10a24.36,24.36,0,0,1,12.67,2.51c5.87,3.05,8.83,8.15,10.05,14.44a41.07,41.07,0,0,1,.71,7.82v46.81H433.78"/><path d="M601.09,123.05a44.22,44.22,0,0,0-1.77-12.78c-2.28-7.24-6.42-13-13.42-16.36A29.94,29.94,0,0,0,571,91.36c-11.61.64-19.56,6.47-24.15,17.08a44,44,0,0,0-3.15,14.41c-.46,6.7-.32,13.37,1.68,19.85,3.27,10.64,10,17.75,21,20.41,6.79,1.64,13.65,1.28,20.46,0a40.26,40.26,0,0,0,10.77-3.74V146.51l-1.39.67A41.48,41.48,0,0,1,575,151.71a15.81,15.81,0,0,1-8.12-2.61c-4-2.7-5.9-6.67-6.84-11.22a28.57,28.57,0,0,1-.63-6.39h41.64C601.09,128.58,601.12,125.82,601.09,123.05Zm-37.72-2.87c.41-4.51,1.09-8.86,3.89-12.61,4.49-6,16.3-6.56,20.22,2.14a27,27,0,0,1,2.3,10.47Z"/><path class="cls-2" d="M69.31,158.46a64.86,64.86,0,0,1-7.2-2.31,75.16,75.16,0,0,1-29.52-19.84A82.68,82.68,0,0,1,15,105.11a85,85,0,0,1-3.84-24.62A122.43,122.43,0,0,1,16.62,42c.09-.28.2-.54.35-1A73.62,73.62,0,0,1,40.24,57.6,104.7,104.7,0,0,0,37,68.54a98.32,98.32,0,0,0-2,31.35,78.35,78.35,0,0,0,17.45,42.6,84.93,84.93,0,0,0,16,15.29"/><path d="M537.4,149.34v11.95a25.89,25.89,0,0,1-7.33,2.27,31.2,31.2,0,0,1-12.55-.06c-7.55-1.8-11.92-6.54-13.16-14.17a45.3,45.3,0,0,1-.56-7.17V104.85h-8.35V97.34l9.38-5,4.53-15.09h10.18V92.43h17.05v12.35H519.8c-.37.44-.23.87-.23,1.26V142a13.47,13.47,0,0,0,.53,3.94,7,7,0,0,0,6.68,5.2,28.49,28.49,0,0,0,9.69-1.48Z"/><path d="M377.38,162.8H361.75V92.53h15.63Z"/><path class="cls-3" d="M90.34,162.59a53.37,53.37,0,0,1-6.55,1,87.86,87.86,0,0,1-33.12-3.21c-19.94-6-34.41-18.65-43.91-37.07A90.16,90.16,0,0,1,0,105.79L14.57,114a75.38,75.38,0,0,0,10.49,18.45c9.5,12.21,21.83,20.36,36.41,25.23a94.5,94.5,0,0,0,27.39,4.8C89.35,162.49,89.85,162.55,90.34,162.59Z"/><path class="cls-1" d="M139.25,92.94c6.7-.21,12.74,5.73,12.69,12.75a12.8,12.8,0,0,1-25.6.46c0-.23,0-.45,0-.68A12.72,12.72,0,0,1,139.25,92.94Z"/><path d="M360.93,73.87a21,21,0,0,1,.2-2.37,6.72,6.72,0,0,1,5.09-5.64,11.56,11.56,0,0,1,6.44-.09,7.08,7.08,0,0,1,5.57,6.4,13.57,13.57,0,0,1-.21,5A6.69,6.69,0,0,1,374,82a10.76,10.76,0,0,1-8.08.25C362.45,80.93,360.93,78.37,360.93,73.87Z"/><path class="cls-1" d="M121,129.53a8,8,0,1,1-8.07,7.95,7.86,7.86,0,0,1,7.77-7.95Z"/><path d="M473.58,113.61c-4.94,0-7.57-3.43-6.86-8.75.36-2.67,1.57-4.65,4.21-5.38,2.91-.81,5.77-.7,8,1.65,1.74,1.8,1.81,4.15,1.57,6.45C480.12,111.57,477.68,113.62,473.58,113.61Z"/><path d="M480.61,145.07c-.07,2.66-.62,5-3.16,6.32a7.9,7.9,0,0,1-7.82-.12c-2.1-1.15-2.8-3.12-3-5.36a12.16,12.16,0,0,1,0-2.09c.25-2.54,1.33-4.55,3.85-5.43a7.92,7.92,0,0,1,7.87,1C480.31,140.81,480.53,143,480.61,145.07Z"/></g></g></g></g></svg>