<svg width="287" height="46" viewBox="0 0 287 46" fill="none" xmlns="http://www.w3.org/2000/svg">
<rect width="287" height="46" rx="23" fill="black"/>
<path d="M93.6162 23.4C93.9522 22.28 94.2742 21.146 94.5682 19.97H94.6382C94.9462 21.132 95.2542 22.28 95.6042 23.4L96.0102 24.786H93.1962L93.6162 23.4ZM90.2842 29H91.9362L92.8182 26.06H96.4022L97.2702 29H98.9922L95.5762 18.682H93.7002L90.2842 29ZM100.211 32.122H101.821V29.63L101.765 28.314C102.423 28.874 103.109 29.182 103.795 29.182C105.531 29.182 107.113 27.67 107.113 25.024C107.113 22.658 106.021 21.104 104.075 21.104C103.207 21.104 102.367 21.58 101.695 22.14H101.653L101.527 21.3H100.211V32.122ZM103.487 27.852C103.011 27.852 102.423 27.67 101.821 27.152V23.386C102.465 22.756 103.039 22.448 103.641 22.448C104.929 22.448 105.447 23.442 105.447 25.052C105.447 26.858 104.607 27.852 103.487 27.852ZM109.03 32.122H110.64V29.63L110.584 28.314C111.242 28.874 111.928 29.182 112.614 29.182C114.35 29.182 115.932 27.67 115.932 25.024C115.932 22.658 114.84 21.104 112.894 21.104C112.026 21.104 111.186 21.58 110.514 22.14H110.472L110.346 21.3H109.03V32.122ZM112.306 27.852C111.83 27.852 111.242 27.67 110.64 27.152V23.386C111.284 22.756 111.858 22.448 112.46 22.448C113.748 22.448 114.266 23.442 114.266 25.052C114.266 26.858 113.426 27.852 112.306 27.852ZM119.444 29.182C119.85 29.182 120.116 29.126 120.312 29.056L120.102 27.838C119.962 27.866 119.906 27.866 119.836 27.866C119.64 27.866 119.458 27.712 119.458 27.278V17.842H117.848V27.194C117.848 28.44 118.282 29.182 119.444 29.182ZM125.224 29.182C126.232 29.182 127.114 28.846 127.828 28.37L127.268 27.348C126.708 27.712 126.12 27.922 125.434 27.922C124.104 27.922 123.18 27.04 123.054 25.57H128.052C128.094 25.374 128.136 25.066 128.136 24.744C128.136 22.574 127.03 21.104 124.986 21.104C123.194 21.104 121.472 22.658 121.472 25.15C121.472 27.698 123.138 29.182 125.224 29.182ZM123.04 24.45C123.194 23.106 124.048 22.364 125.014 22.364C126.134 22.364 126.736 23.134 126.736 24.45H123.04ZM129.766 19.62L129.906 21.146C131.474 20.81 134.736 20.474 136.15 20.334C135.016 21.076 133.77 22.77 133.77 24.884C133.77 27.964 136.64 29.434 139.384 29.574L139.888 28.076C137.578 27.978 135.198 27.124 135.198 24.576C135.198 22.924 136.43 20.922 138.292 20.362C139.02 20.18 140.238 20.166 141.022 20.166V18.752C140.056 18.78 138.656 18.864 137.158 18.99C134.582 19.214 132.09 19.452 131.068 19.55C130.788 19.578 130.298 19.606 129.766 19.62ZM139.006 21.72L138.166 22.084C138.586 22.686 138.95 23.33 139.286 24.044L140.154 23.652C139.86 23.064 139.342 22.21 139.006 21.72ZM140.56 21.118L139.72 21.496C140.168 22.098 140.532 22.714 140.896 23.428L141.75 23.022C141.442 22.434 140.896 21.594 140.56 21.118ZM144.634 19.256C144.662 19.62 144.662 20.11 144.662 20.474V27.348C144.662 27.908 144.634 29.028 144.62 29.154H146.146C146.132 29.084 146.132 28.748 146.132 28.37H153.384C153.37 28.762 153.37 29.084 153.356 29.154H154.882C154.882 29.042 154.854 27.838 154.854 27.348V20.474C154.854 20.082 154.854 19.648 154.882 19.27C154.42 19.284 153.916 19.284 153.594 19.284H145.992C145.642 19.284 145.194 19.284 144.634 19.256ZM146.118 20.684H153.384V26.97H146.118V20.684ZM167.51 17.688L166.614 18.066C166.992 18.598 167.44 19.438 167.72 19.998L168.644 19.606C168.364 19.06 167.86 18.192 167.51 17.688ZM169.092 17.086L168.196 17.464C168.588 17.996 169.05 18.794 169.344 19.396L170.254 18.99C170.002 18.486 169.47 17.604 169.092 17.086ZM163.954 18.444L162.33 17.912C162.218 18.318 161.98 18.878 161.812 19.172C161.154 20.404 159.852 22.336 157.416 23.806L158.648 24.716C160.104 23.736 161.308 22.504 162.19 21.3H166.572C166.32 22.476 165.48 24.24 164.444 25.43C163.198 26.872 161.532 28.118 158.83 28.916L160.132 30.092C162.75 29.084 164.444 27.796 165.732 26.214C166.992 24.674 167.818 22.798 168.196 21.454C168.294 21.174 168.448 20.824 168.588 20.6L167.44 19.9C167.174 19.984 166.782 20.04 166.39 20.04H163.016C163.1 19.914 163.156 19.802 163.226 19.676C163.38 19.396 163.674 18.864 163.954 18.444ZM171.78 23.778L172.466 25.164C174.314 24.604 176.162 23.792 177.632 22.994V27.866C177.632 28.44 177.59 29.21 177.548 29.518H179.284C179.214 29.21 179.186 28.44 179.186 27.866V22.056C180.572 21.146 181.888 20.068 182.952 18.99L181.776 17.87C180.824 19.004 179.34 20.306 177.884 21.202C176.33 22.168 174.23 23.12 171.78 23.778ZM187.978 18.57L186.956 19.662C187.992 20.362 189.728 21.888 190.456 22.63L191.562 21.496C190.778 20.684 188.958 19.228 187.978 18.57ZM186.536 27.936L187.474 29.378C189.644 28.986 191.422 28.16 192.836 27.292C195.02 25.948 196.742 24.044 197.75 22.224L196.896 20.698C196.042 22.49 194.292 24.59 192.038 25.976C190.694 26.802 188.874 27.586 186.536 27.936Z" fill="white"/>
<path d="M31.8746 17.6538C32.6956 17.6538 33.7248 17.1046 34.3377 16.3722C34.8928 15.7085 35.2975 14.7816 35.2975 13.8547C35.2975 13.7289 35.2859 13.603 35.2628 13.5C34.3493 13.5343 33.2507 14.1065 32.5915 14.8732C32.0712 15.4568 31.597 16.3722 31.597 17.3106C31.597 17.4479 31.6202 17.5852 31.6317 17.631C31.6895 17.6424 31.7821 17.6538 31.8746 17.6538ZM28.9836 31.5C30.1053 31.5 30.6025 30.7562 32.0018 30.7562C33.4241 30.7562 33.7364 31.4771 34.9853 31.4771C36.2111 31.4771 37.0321 30.3557 37.8069 29.2572C38.6742 27.9984 39.0327 26.7626 39.0558 26.7053C38.9749 26.6825 36.6274 25.7327 36.6274 23.0664C36.6274 20.7549 38.4776 19.7136 38.5817 19.6335C37.3559 17.8942 35.4941 17.8484 34.9853 17.8484C33.6092 17.8484 32.4875 18.6723 31.7821 18.6723C31.0188 18.6723 30.0128 17.8942 28.8217 17.8942C26.5551 17.8942 24.2539 19.7479 24.2539 23.2495C24.2539 25.4237 25.1096 27.7238 26.162 29.2114C27.064 30.4701 27.8503 31.5 28.9836 31.5Z" fill="white"/>
</svg>
