<svg width="287" height="423" viewBox="0 0 287 423" fill="none" xmlns="http://www.w3.org/2000/svg">
<rect y="377" width="287" height="46" rx="23" fill="white"/>
<path d="M93.9603 406.182C95.3743 406.182 96.5363 405.664 97.2223 404.978V400.512H93.7083V401.842H95.7523V404.264C95.3883 404.586 94.7583 404.768 94.1283 404.768C92.0003 404.768 90.8663 403.27 90.8663 400.82C90.8663 398.398 92.1403 396.914 94.0583 396.914C95.0523 396.914 95.6823 397.32 96.2003 397.838L97.0683 396.802C96.4383 396.144 95.4583 395.5 94.0023 395.5C91.2723 395.5 89.2003 397.516 89.2003 400.876C89.2003 404.25 91.2163 406.182 93.9603 406.182ZM102.517 406.182C104.421 406.182 106.143 404.712 106.143 402.15C106.143 399.588 104.421 398.104 102.517 398.104C100.613 398.104 98.8908 399.588 98.8908 402.15C98.8908 404.712 100.613 406.182 102.517 406.182ZM102.517 404.866C101.313 404.866 100.557 403.788 100.557 402.15C100.557 400.526 101.313 399.434 102.517 399.434C103.735 399.434 104.491 400.526 104.491 402.15C104.491 403.788 103.735 404.866 102.517 404.866ZM111.116 406.182C113.02 406.182 114.742 404.712 114.742 402.15C114.742 399.588 113.02 398.104 111.116 398.104C109.212 398.104 107.49 399.588 107.49 402.15C107.49 404.712 109.212 406.182 111.116 406.182ZM111.116 404.866C109.912 404.866 109.156 403.788 109.156 402.15C109.156 400.526 109.912 399.434 111.116 399.434C112.334 399.434 113.09 400.526 113.09 402.15C113.09 403.788 112.334 404.866 111.116 404.866ZM119.268 409.458C121.732 409.458 123.3 408.254 123.3 406.77C123.3 405.454 122.348 404.894 120.528 404.894H119.114C118.134 404.894 117.826 404.6 117.826 404.138C117.826 403.76 117.994 403.55 118.246 403.326C118.582 403.48 118.974 403.564 119.324 403.564C120.934 403.564 122.208 402.598 122.208 400.918C122.208 400.33 121.998 399.812 121.704 399.504H123.174V398.3H120.444C120.15 398.188 119.758 398.104 119.324 398.104C117.728 398.104 116.342 399.126 116.342 400.862C116.342 401.786 116.832 402.514 117.364 402.92V402.976C116.93 403.284 116.496 403.802 116.496 404.404C116.496 405.034 116.804 405.44 117.196 405.678V405.748C116.482 406.182 116.076 406.784 116.076 407.428C116.076 408.772 117.42 409.458 119.268 409.458ZM119.324 402.528C118.526 402.528 117.868 401.898 117.868 400.862C117.868 399.826 118.512 399.238 119.324 399.238C120.136 399.238 120.78 399.84 120.78 400.862C120.78 401.898 120.122 402.528 119.324 402.528ZM119.506 408.394C118.232 408.394 117.448 407.946 117.448 407.19C117.448 406.798 117.644 406.406 118.106 406.07C118.428 406.14 118.778 406.182 119.142 406.182H120.304C121.242 406.182 121.746 406.378 121.746 407.022C121.746 407.736 120.85 408.394 119.506 408.394ZM126.326 406.182C126.732 406.182 126.998 406.126 127.194 406.056L126.984 404.838C126.844 404.866 126.788 404.866 126.718 404.866C126.522 404.866 126.34 404.712 126.34 404.278V394.842H124.73V404.194C124.73 405.44 125.164 406.182 126.326 406.182ZM132.106 406.182C133.114 406.182 133.996 405.846 134.71 405.37L134.15 404.348C133.59 404.712 133.002 404.922 132.316 404.922C130.986 404.922 130.062 404.04 129.936 402.57H134.934C134.976 402.374 135.018 402.066 135.018 401.744C135.018 399.574 133.912 398.104 131.868 398.104C130.076 398.104 128.354 399.658 128.354 402.15C128.354 404.698 130.02 406.182 132.106 406.182ZM129.922 401.45C130.076 400.106 130.93 399.364 131.896 399.364C133.016 399.364 133.618 400.134 133.618 401.45H129.922ZM136.648 396.62L136.788 398.146C138.356 397.81 141.618 397.474 143.032 397.334C141.898 398.076 140.652 399.77 140.652 401.884C140.652 404.964 143.522 406.434 146.266 406.574L146.77 405.076C144.46 404.978 142.08 404.124 142.08 401.576C142.08 399.924 143.312 397.922 145.174 397.362C145.902 397.18 147.12 397.166 147.904 397.166V395.752C146.938 395.78 145.538 395.864 144.04 395.99C141.464 396.214 138.972 396.452 137.95 396.55C137.67 396.578 137.18 396.606 136.648 396.62ZM145.888 398.72L145.048 399.084C145.468 399.686 145.832 400.33 146.168 401.044L147.036 400.652C146.742 400.064 146.224 399.21 145.888 398.72ZM147.442 398.118L146.602 398.496C147.05 399.098 147.414 399.714 147.778 400.428L148.632 400.022C148.324 399.434 147.778 398.594 147.442 398.118ZM151.516 396.256C151.544 396.62 151.544 397.11 151.544 397.474V404.348C151.544 404.908 151.516 406.028 151.502 406.154H153.028C153.014 406.084 153.014 405.748 153.014 405.37H160.266C160.252 405.762 160.252 406.084 160.238 406.154H161.764C161.764 406.042 161.736 404.838 161.736 404.348V397.474C161.736 397.082 161.736 396.648 161.764 396.27C161.302 396.284 160.798 396.284 160.476 396.284H152.874C152.524 396.284 152.076 396.284 151.516 396.256ZM153 397.684H160.266V403.97H153V397.684ZM174.392 394.688L173.496 395.066C173.874 395.598 174.322 396.438 174.602 396.998L175.526 396.606C175.246 396.06 174.742 395.192 174.392 394.688ZM175.974 394.086L175.078 394.464C175.47 394.996 175.932 395.794 176.226 396.396L177.136 395.99C176.884 395.486 176.352 394.604 175.974 394.086ZM170.836 395.444L169.212 394.912C169.1 395.318 168.862 395.878 168.694 396.172C168.036 397.404 166.734 399.336 164.298 400.806L165.53 401.716C166.986 400.736 168.19 399.504 169.072 398.3H173.454C173.202 399.476 172.362 401.24 171.326 402.43C170.08 403.872 168.414 405.118 165.712 405.916L167.014 407.092C169.632 406.084 171.326 404.796 172.614 403.214C173.874 401.674 174.7 399.798 175.078 398.454C175.176 398.174 175.33 397.824 175.47 397.6L174.322 396.9C174.056 396.984 173.664 397.04 173.272 397.04H169.898C169.982 396.914 170.038 396.802 170.108 396.676C170.262 396.396 170.556 395.864 170.836 395.444ZM178.662 400.778L179.348 402.164C181.196 401.604 183.044 400.792 184.514 399.994V404.866C184.514 405.44 184.472 406.21 184.43 406.518H186.166C186.096 406.21 186.068 405.44 186.068 404.866V399.056C187.454 398.146 188.77 397.068 189.834 395.99L188.658 394.87C187.706 396.004 186.222 397.306 184.766 398.202C183.212 399.168 181.112 400.12 178.662 400.778ZM194.86 395.57L193.838 396.662C194.874 397.362 196.61 398.888 197.338 399.63L198.444 398.496C197.66 397.684 195.84 396.228 194.86 395.57ZM193.418 404.936L194.356 406.378C196.526 405.986 198.304 405.16 199.718 404.292C201.902 402.948 203.624 401.044 204.632 399.224L203.778 397.698C202.924 399.49 201.174 401.59 198.92 402.976C197.576 403.802 195.756 404.586 193.418 404.936Z" fill="#889396"/>
<g clip-path="url(#clip0)">
<path d="M97.1038 0.932373H96.4883V1.79474H97.1038V0.932373Z" fill="black"/>
<path d="M96.7997 1.22412C96.8167 1.22412 96.838 1.21276 96.8507 1.1976C96.8623 1.18387 96.8706 1.1647 96.8706 1.14552C96.8706 1.14292 96.8704 1.14031 96.8699 1.13818C96.851 1.13889 96.8282 1.15073 96.8145 1.16659C96.8037 1.17867 96.7939 1.1976 96.7939 1.21702C96.7939 1.21986 96.7944 1.2227 96.7946 1.22365C96.7958 1.22388 96.7977 1.22412 96.7997 1.22412ZM96.7397 1.51057C96.763 1.51057 96.7733 1.49518 96.8023 1.49518C96.8318 1.49518 96.8383 1.5101 96.8642 1.5101C96.8896 1.5101 96.9066 1.4869 96.9227 1.46417C96.9407 1.43813 96.9481 1.41256 96.9486 1.41138C96.9469 1.4109 96.8982 1.39125 96.8982 1.33609C96.8982 1.28827 96.9366 1.26673 96.9388 1.26507C96.9133 1.22909 96.8747 1.22814 96.8642 1.22814C96.8356 1.22814 96.8124 1.24519 96.7977 1.24519C96.7819 1.24519 96.761 1.22909 96.7363 1.22909C96.6893 1.22909 96.6416 1.26744 96.6416 1.33988C96.6416 1.38486 96.6593 1.43245 96.6812 1.46322C96.6999 1.48926 96.7162 1.51057 96.7397 1.51057Z" fill="white"/>
</g>
<g clip-path="url(#clip1)">
<path d="M42.0002 400.207C42.0002 399.595 41.9495 398.98 41.8416 398.378H33.1807V401.844H38.1404C37.9346 402.961 37.2733 403.95 36.3049 404.579V406.827H39.2639C41.0015 405.26 42.0002 402.945 42.0002 400.207Z" fill="#4285F4"/>
<path d="M33.18 409C35.6565 409 37.745 408.203 39.2666 406.827L36.3077 404.579C35.4844 405.128 34.4217 405.438 33.1834 405.438C30.7879 405.438 28.7568 403.854 28.028 401.725H24.9746V404.043C26.5334 407.082 29.7083 409 33.18 409Z" fill="#34A853"/>
<path d="M28.0249 401.725C27.6402 400.607 27.6402 399.396 28.0249 398.279V395.96H24.9748C23.6725 398.504 23.6725 401.5 24.9748 404.043L28.0249 401.725Z" fill="#FBBC04"/>
<path d="M33.18 394.562C34.4891 394.542 35.7544 395.025 36.7024 395.911L39.324 393.341C37.664 391.814 35.4608 390.974 33.18 391C29.7083 391 26.5334 392.918 24.9746 395.961L28.0247 398.279C28.7501 396.146 30.7845 394.562 33.18 394.562Z" fill="#EA4335"/>
</g>
<defs>
<clipPath id="clip0">
<rect width="0.615532" height="0.862366" fill="white" transform="translate(96.4883 0.932373)"/>
</clipPath>
<clipPath id="clip1">
<rect width="18" height="18" fill="white" transform="translate(24 391)"/>
</clipPath>
</defs>
</svg>
