<svg xmlns="http://www.w3.org/2000/svg" viewBox="0 0 927.05 1118.7"><defs><style>.cls-1{fill:#9ef0ea;}.cls-2{fill:#099;}.cls-3{fill:#34c7c7;}</style></defs><g id="レイヤー_2" data-name="レイヤー 2"><g id="レイヤー_1-2" data-name="レイヤー 1"><circle class="cls-1" cx="696.32" cy="688.94" r="39.98"/><circle class="cls-1" cx="787.6" cy="529.32" r="63.86"/><path class="cls-2" d="M549.46,814.37a448.3,448.3,0,0,1-141.61,2.56c-22.6-3.22-64.94-9.58-113.47-32.41C289.07,782,243,760,204.81,724.8c-5.3-4.89-30.15-27.91-55.45-65.69-17.73-26.46-42.06-69.37-58-128.82l72.52,41a374.44,374.44,0,0,0,71.66,115.17C348.86,810.12,511.16,814.37,549.46,814.37Z"/><path class="cls-1" d="M401.87,756.36c-27.51-33.43-123.71-158.57-112.61-331.85C301.07,240.25,429.5,74.82,617.35,0a788.66,788.66,0,0,1,95.79,162.79c35.51,81.34,41.08,156.77,41.08,156.77C725.8,323.28,590,344.13,490.58,467.44S399.5,727.79,401.87,756.36Z"/><path class="cls-3" d="M264.52,435.6c-.9,32.86-2.12,103,31.57,182.56,41,96.75,110.23,152.39,145,176.59-37.49-10-114-36.09-181-105.59-8.41-8.74-49.07-51.93-79.05-121.95-44.53-104-35.11-197.73-29.74-247.82a549.8,549.8,0,0,1,24.62-113.68,371.39,371.39,0,0,1,79.72,49,369.16,369.16,0,0,1,36.65,33.88A473.19,473.19,0,0,0,264.52,435.6Z"/><path d="M103.18,1115.9H61V921.41H0v-33.9H163.79v33.9H103.18Z"/><path d="M307.87,1115.9l-16.54-71.51q-1.41-6.45-3.51-16.27t-3.92-19.06q-1.83-9.25-2.94-14.59h-1.13q-1.12,5.34-2.94,14.87T273,1028.41q-2.1,9.52-3.78,16l-17.11,71.51H214.78l-39-152.27h33.93l16.54,69.82q2.53,11.22,4.77,25.24t3.37,23.56h1.12q.56-5.61,2-13.88t2.94-16.55q1.55-8.27,2.95-14.44l18.51-73.75h37.85l17.95,74q1.4,5.61,2.94,13.6t2.81,16.26q1.26,8.28,1.82,14.73h1.12c.37-3.37.94-7.62,1.68-12.76s1.69-10.56,2.81-16.27,2.24-11.07,3.36-16.12l17.67-73.47h33.37L346,1115.9Z"/><path d="M426.65,905q8.13,0,13.46,4.49t5.33,14.3q0,9.83-5.33,14.3t-13.46,4.49q-8.14,0-13.46-4.49t-5.33-14.3q0-10.09,5.19-14.44T426.65,905Zm16.82,58.61V1115.9H409.54V963.63Z"/><path d="M550.28,960.82q23,0,35.9,13.32t12.9,41.65V1115.9H565.43v-92.54q0-16.83-5.75-25.52t-18.37-8.69q-18.22,0-25.1,12.9t-6.87,39.25v74.6H475.41V963.63h26.36l4.49,20.19h2a39.92,39.92,0,0,1,17.67-17.25A53.82,53.82,0,0,1,550.28,960.82Z"/><path d="M636.53,993.68q0-8.37,4.18-12T651.64,978a15.63,15.63,0,0,1,10.71,3.67q4.18,3.68,4.19,12,0,8.18-4.29,11.94a15.48,15.48,0,0,1-10.61,3.78,15.74,15.74,0,0,1-10.82-3.78Q636.53,1001.86,636.53,993.68Zm0,83.89q0-8.16,4.18-11.94t10.93-3.77a15.63,15.63,0,0,1,10.71,3.67q4.18,3.67,4.19,12,0,8.17-4.29,11.84a17.26,17.26,0,0,1-21.43-.1Q636.53,1085.55,636.53,1077.57Z"/><path d="M768.17,1090.66a52.78,52.78,0,0,0,10.93-1.12,95.44,95.44,0,0,0,10.38-2.81v25.8a56.45,56.45,0,0,1-13.6,4.49,82.42,82.42,0,0,1-17,1.68q-18.78,0-30.42-10.66t-11.64-37V990.27H698.62v-16l20.47-10.94,9.82-32.81h21.87v33.09h37v26.64h-37v79.92q0,10.38,4.63,15.42T768.17,1090.66Z"/><path d="M866.48,961.11q28.6,0,44.59,18.5t16,50.2V1048H837q.27,21.3,10,32.66t27.62,11.36a91.36,91.36,0,0,0,23.28-2.8,104.32,104.32,0,0,0,21.87-8.7v27.76a96,96,0,0,1-21.87,7.86,118.46,118.46,0,0,1-25.8,2.52q-32.54,0-50.9-20.19T802.83,1041q0-39,17.1-59.44T866.48,961.11Zm8.28,25.51q-12.62,0-20.33,9.12t-8.83,28.18h57.2q-.28-16.26-7.15-26.78T874.76,986.62Z"/></g></g></svg>