<?xml version="1.0" encoding="utf-8"?>
<!-- Generator: Adobe Illustrator 25.2.1, SVG Export Plug-In . SVG Version: 6.00 Build 0)  -->
<svg version="1.1" id="レイヤー_1" xmlns="http://www.w3.org/2000/svg" xmlns:xlink="http://www.w3.org/1999/xlink" x="0px"
	 y="0px" viewBox="0 0 601.1 164.2" style="enable-background:new 0 0 601.1 164.2;" xml:space="preserve">
<style type="text/css">
	.st0{fill:#CFCFCF;}
</style>
<g id="レイヤー_2_1_">
	<g id="レイヤー_1-2">
		<g id="レイヤー_2-2">
			<g id="レイヤー_1-2-2">
				<g id="レイヤー_2-2-2">
					<g id="レイヤー_1-2-2-2">
						<path class="st0" d="M105.2,0c14.1,19.1,24.8,39.6,27.3,63.7c-21.2,3.4-39,12.8-52.6,29.5s-19,36.1-17.9,57.7
							c-1.4-1.6-2.8-3.4-4-5.2c-6.6-9.1-11.6-19.2-14.9-30c-2.7-9.1-4-18.6-3.8-28.1c0.2-7.3,1.4-14.6,3.4-21.6
							c1.7-5.8,3.9-11.5,6.7-16.8c3.3-6.5,7.4-12.5,12.1-18.1c2.2-2.6,4.5-5.2,7-7.6C75.6,16.8,83.3,11,91.8,6.4
							c4.2-2.3,8.5-4.4,12.9-6.2C104.8,0.1,105,0,105.2,0z"/>
						<path class="st0" d="M293.4,92.5h17.7c3.9,18.2,9.7,36,11.9,54.7c1.3-9.3,3.2-18.4,5.4-27.5c2.2-9.1,4.4-18.2,6.6-27.2h15.5
							l-18.1,70.3h-17.7c-4.3-18.7-8.9-37.2-12.7-56.1c-3.6,18.9-8.8,37.3-13,56h-17.4c-6-23.3-12-46.7-18-70.2h15.8
							c4,18.2,9.4,36.1,11.5,54.7c1.6-9.2,3.2-18.4,5.6-27.5S291.1,101.6,293.4,92.5z"/>
						<path class="st0" d="M248,57.4V73h-27.9v89.8h-19.6V73h-28.2V57.4H248z"/>
						<path class="st0" d="M433.8,119.5c0.1-3.1-0.4-6.1-1.5-9c-1.3-3.7-4.7-6.1-8.6-6.2c-2.1-0.1-4.2,0.1-6.2,0.7
							c-4.4,1.4-6.6,4.8-7.8,8.9c-1.2,4.2-1.7,8.5-1.6,12.8v36h-15.7V92.5h12.2c0.7,3.1,1.4,6.1,2,9.2c0.6,0.3,0.9,0,1.2-0.4
							c4.1-6.9,10.6-9.6,18.3-10c4.4-0.3,8.7,0.5,12.7,2.5c5.9,3.1,8.8,8.2,10,14.4c0.5,2.6,0.7,5.2,0.7,7.8v46.8H434"/>
						<path class="st0" d="M601.1,123.1c0-4.3-0.6-8.6-1.8-12.8c-2.3-7.2-6.4-13-13.4-16.4c-4.7-2.1-9.8-3-14.9-2.6
							c-11.6,0.6-19.6,6.5-24.2,17.1c-1.9,4.6-2.9,9.5-3.2,14.4c-0.5,6.7-0.3,13.4,1.7,19.9c3.3,10.6,10,17.8,21,20.4
							c6.8,1.6,13.7,1.3,20.5,0c3.7-0.7,7.4-2,10.8-3.7v-12.9l-1.4,0.7c-6.5,3.4-13.9,4.9-21.2,4.5c-2.9-0.1-5.7-1-8.1-2.6
							c-4-2.7-5.9-6.7-6.8-11.2c-0.4-2.1-0.7-4.2-0.6-6.4H601C601.1,128.6,601.1,125.8,601.1,123.1z M563.4,120.2
							c0.4-4.5,1.1-8.9,3.9-12.6c4.5-6,16.3-6.6,20.2,2.1c1.5,3.3,2.2,6.9,2.3,10.5H563.4z"/>
						<path class="st0" d="M69.3,158.5c-2.4-0.6-4.8-1.4-7.2-2.3c-11.3-4.2-21.4-11-29.5-19.8c-8.1-9-14.1-19.6-17.6-31.2
							c-2.5-8-3.8-16.3-3.8-24.6c-0.2-13,1.6-26,5.5-38.5c0.1-0.3,0.2-0.5,0.4-1c8.8,4,16.7,9.6,23.3,16.6
							c-1.3,3.6-2.4,7.2-3.2,10.9c-2.3,10.3-3,20.9-2,31.3c1.4,15.6,7.5,30.5,17.5,42.6c4.6,5.8,10,10.9,16,15.3"/>
						<path class="st0" d="M537.4,149.3v11.9c-2.3,1.1-4.8,1.9-7.3,2.3c-4.1,0.8-8.4,0.8-12.5-0.1c-7.5-1.8-11.9-6.5-13.2-14.2
							c-0.4-2.4-0.6-4.8-0.6-7.2v-37.3h-8.4v-7.5l9.4-5l4.5-15.1h10.2v15.2h17v12.3h-16.8c-0.4,0.4-0.2,0.9-0.2,1.3v36
							c0,1.3,0.2,2.7,0.5,3.9c0.8,3,3.5,5.2,6.7,5.2c3.3,0.1,6.6-0.4,9.7-1.5L537.4,149.3z"/>
						<path class="st0" d="M377.4,162.8h-15.6V92.5h15.6V162.8z"/>
						<path class="st0" d="M90.3,162.6c-2.2,0.5-4.3,0.8-6.6,1c-11.1,1-22.4,0-33.1-3.2c-19.9-6-34.4-18.6-43.9-37.1
							c-2.9-5.6-5.1-11.5-6.8-17.5l14.6,8.2c2.6,6.6,6.1,12.8,10.5,18.4c9.5,12.2,21.8,20.4,36.4,25.2c8.8,2.9,18.1,4.6,27.4,4.8
							C89.3,162.5,89.8,162.6,90.3,162.6z"/>
						<path class="st0" d="M139.2,92.9c6.7-0.2,12.7,5.7,12.7,12.8c0.1,7.1-5.5,12.9-12.6,13s-12.9-5.5-13-12.6v-0.7
							C126.4,98.4,132.2,92.8,139.2,92.9L139.2,92.9z"/>
						<path class="st0" d="M360.9,73.9c0-0.8,0.1-1.6,0.2-2.4c0.4-2.8,2.4-5,5.1-5.6c2.1-0.6,4.3-0.7,6.4-0.1
							c3.1,0.7,5.3,3.3,5.6,6.4c0.2,1.7,0.2,3.4-0.2,5c-0.5,2.2-2,4-4,4.8c-2.6,1.1-5.5,1.2-8.1,0.2
							C362.5,80.9,360.9,78.4,360.9,73.9z"/>
						<path class="st0" d="M121,129.5c4.4,0,8,3.7,7.9,8.1c0,4.4-3.7,8-8.1,7.9c-4.4,0-8-3.6-7.9-8c0-4.3,3.4-7.9,7.8-7.9l0,0h0.3
							V129.5z"/>
						<path class="st0" d="M473.6,113.6c-4.9,0-7.6-3.4-6.9-8.8c0.4-2.7,1.6-4.7,4.2-5.4c2.9-0.8,5.8-0.7,8,1.7
							c1.7,1.8,1.8,4.2,1.6,6.4C480.1,111.6,477.7,113.6,473.6,113.6z"/>
						<path class="st0" d="M480.6,145.1c-0.1,2.7-0.6,5-3.2,6.3c-2.4,1.3-5.4,1.3-7.8-0.1c-2.1-1.1-2.8-3.1-3-5.4
							c-0.1-0.7-0.1-1.4,0-2.1c0.2-2.5,1.3-4.6,3.9-5.4c2.6-1.1,5.6-0.7,7.9,1C480.3,140.8,480.5,143,480.6,145.1z"/>
					</g>
				</g>
			</g>
		</g>
	</g>
</g>
</svg>
